<svg width="80" height="80" viewBox="0 0 80 80" fill="none" xmlns="http://www.w3.org/2000/svg">
<path d="M68.5173 20.2099V19.0926H70.4425V10.5765H63.0491V19.0926H64.1655V20.2099H63.0491H61.9326H57.2619V19.0926H61.9326V10.5765H60.2808H54.243H51.7709V19.0926H53.4228V20.2099H51.7709V28.7032H50.6545V27.8824H36.403V26.7651H50.6545V10.5765H41.894H33.6575H30.388V26.7537H33.1334V27.871H30.388H29.2715H26.7994V24.8271H29.2715V10.5765H22.4135H14.177H9.50626V26.7537H21.8553H22.9717H23.8147V27.871H22.9717V28.6918H21.8553V27.871H9.51765V38.3024H21.8667V32.5338H22.9831V38.3024V39.4196H9.51765V59.188H14.1884H22.4249H30.3538V36.4099H27.0843V35.2927H30.3538H31.4702H50.6545V32.5452H51.7709V35.2927H52.8873V36.4099H51.7709H50.6545H31.4702V59.188H33.6689H41.9054H53.4342H58.3783V59.7352V60.0088V61.6961H53.4342H48.2166V68.525H66.0566V61.6961H62.2174V59.188H70.4539V36.4099H58.6403V35.2927H70.4425V24.8613H72.9488V61.6961H70.4425H66.6034V68.525V69.0722H66.0566H48.2052H47.6584V68.525V61.6961H41.894H33.6575H22.4021H14.177H9.50626H7V59.188V10.5765V8.06842H9.50626H14.177H22.4135H33.6689H41.9054H54.2544H60.2922H70.4425H72.9488V10.5765V20.7571H70.4425V20.2099H68.5173Z" fill="#29313C"/>
<path fill-rule="evenodd" clip-rule="evenodd" d="M70.5451 36.3983H67.3212H67.2528V45.7355H67.3212H67.3895V45.8723H70.4084V45.7355H70.5451V36.3983ZM70.4084 45.7355H67.3895V36.5351H70.4084V45.7355ZM70.4084 48.8934H67.3895V49.0302H67.2528V53.4588H70.5451V49.0302H70.4084V48.8934ZM70.4084 49.0302H67.3895V53.322H70.4084V49.0302ZM69.1667 48.0612C69.1667 47.9244 69.2236 47.8104 69.3034 47.7192C69.3945 47.628 69.5084 47.5824 69.6451 47.5824C69.7819 47.5824 69.8958 47.6394 69.9869 47.7192C70.078 47.8104 70.1236 47.9244 70.1236 48.0612C70.1236 48.198 70.0667 48.312 69.9869 48.4032C69.8958 48.4944 69.7819 48.54 69.6451 48.54C69.5084 48.54 69.3945 48.483 69.3034 48.4032C69.2236 48.312 69.1667 48.198 69.1667 48.0612ZM69.3034 48.0612C69.3034 47.97 69.349 47.8788 69.4059 47.8218C69.4629 47.7534 69.554 47.7192 69.6452 47.7192C69.7363 47.7192 69.8274 47.7648 69.8844 47.8218C69.9527 47.8788 69.9869 47.97 69.9869 48.0612C69.9869 48.1524 69.9413 48.2436 69.8844 48.3006C69.8274 48.369 69.7363 48.4032 69.6452 48.4032C69.554 48.4032 69.4629 48.3576 69.4059 48.3006C69.3376 48.2436 69.3034 48.1524 69.3034 48.0612ZM67.6743 48.0612C67.6743 47.9244 67.7313 47.8104 67.811 47.7192C67.9022 47.628 68.0161 47.5824 68.1528 47.5824C68.2895 47.5824 68.4034 47.6394 68.4945 47.7192C68.5857 47.8104 68.6313 47.9244 68.6313 48.0612C68.6313 48.198 68.5743 48.312 68.4945 48.4032C68.4034 48.4944 68.2895 48.54 68.1528 48.54C68.0161 48.54 67.9022 48.483 67.811 48.4032C67.7313 48.312 67.6743 48.198 67.6743 48.0612ZM67.811 48.0612C67.811 47.97 67.8566 47.8788 67.9136 47.8218C67.9705 47.7534 68.0616 47.7192 68.1528 47.7192C68.2439 47.7192 68.3351 47.7648 68.392 47.8218C68.4604 47.8788 68.4945 47.97 68.4945 48.0612C68.4945 48.1524 68.449 48.2436 68.392 48.3006C68.3351 48.369 68.2439 48.4032 68.1528 48.4032C68.0616 48.4032 67.9705 48.3576 67.9136 48.3006C67.8452 48.2436 67.811 48.1524 67.811 48.0612ZM69.1667 46.6931C69.1667 46.5563 69.2236 46.4423 69.3034 46.3511C69.3945 46.2599 69.5084 46.2143 69.6451 46.2143C69.7819 46.2143 69.8958 46.2713 69.9869 46.3511C70.078 46.4423 70.1236 46.5563 70.1236 46.6931C70.1236 46.8299 70.0667 46.9439 69.9869 47.0351C69.8958 47.1263 69.7819 47.1719 69.6451 47.1719C69.5084 47.1719 69.3945 47.1149 69.3034 47.0351C69.2236 46.9439 69.1667 46.8299 69.1667 46.6931ZM69.3034 46.6931C69.3034 46.6019 69.349 46.5107 69.4059 46.4537C69.4629 46.3853 69.554 46.3511 69.6452 46.3511C69.7363 46.3511 69.8274 46.3967 69.8844 46.4537C69.9527 46.5107 69.9869 46.6019 69.9869 46.6931C69.9869 46.7843 69.9413 46.8755 69.8844 46.9325C69.8274 47.0009 69.7363 47.0351 69.6452 47.0351C69.554 47.0351 69.4629 46.9895 69.4059 46.9325C69.3376 46.8755 69.3034 46.7843 69.3034 46.6931ZM67.6743 46.6931C67.6743 46.5563 67.7313 46.4423 67.811 46.3511C67.9022 46.2599 68.0161 46.2143 68.1528 46.2143C68.2895 46.2143 68.4034 46.2713 68.4945 46.3511C68.5857 46.4423 68.6313 46.5563 68.6313 46.6931C68.6313 46.8299 68.5743 46.9439 68.4945 47.0351C68.4034 47.1263 68.2895 47.1719 68.1528 47.1719C68.0161 47.1719 67.9022 47.1149 67.811 47.0351C67.7313 46.9439 67.6743 46.8299 67.6743 46.6931ZM67.811 46.6931C67.811 46.6019 67.8566 46.5107 67.9136 46.4537C67.9705 46.3853 68.0616 46.3511 68.1528 46.3511C68.2439 46.3511 68.3351 46.3967 68.392 46.4537C68.4604 46.5107 68.4945 46.6019 68.4945 46.6931C68.4945 46.7843 68.449 46.8755 68.392 46.9325C68.3351 47.0009 68.2439 47.0351 68.1528 47.0351C68.0616 47.0351 67.9705 46.9895 67.9136 46.9325C67.8452 46.8755 67.811 46.7843 67.811 46.6931Z" fill="#29313C"/>
<path fill-rule="evenodd" clip-rule="evenodd" d="M61.9355 14.1216H59.3723C59.0989 14.1216 58.8369 14.0076 58.6546 13.8252C58.4723 13.6428 58.3584 13.392 58.3584 13.107C58.3584 12.8334 58.4723 12.5712 58.6546 12.3888C58.8369 12.2064 59.0875 12.0924 59.3723 12.0924H61.9355V14.0532V14.1216ZM58.7457 12.4686C58.5862 12.6282 58.4837 12.8562 58.4837 13.107C58.4837 13.3578 58.5862 13.5858 58.7457 13.7454C58.9052 13.905 59.1331 14.0076 59.3837 14.0076L60.8077 14.0076L61.833 14.0076V12.2064H59.3837C59.1331 12.2064 58.9052 12.309 58.7457 12.4686ZM60.8077 14.0076H60.9216V12.2064H60.8077V14.0076Z" fill="#29313C"/>
<path fill-rule="evenodd" clip-rule="evenodd" d="M61.9355 14.9022H61.0014C60.5343 14.9022 60.1128 15.0846 59.8052 15.3924C59.4976 15.6888 59.304 16.0992 59.304 16.5553C59.304 17.0113 59.4976 17.4217 59.8052 17.7181C60.1128 18.0145 60.5343 18.1969 61.0014 18.1969H61.9355V14.9022ZM61.0014 18.0601C60.5685 18.0601 60.1811 17.8891 59.8963 17.6155C59.6115 17.3419 59.4407 16.9657 59.4407 16.5325C59.4407 16.1107 59.6115 15.7344 59.8963 15.4608C60.1811 15.1872 60.5685 15.0162 61.0014 15.0162H61.8102V18.0601H61.0014ZM61.2178 17.8435H60.9558C60.6027 17.8435 60.2837 17.7067 60.0444 17.4787C59.8166 17.2507 59.6685 16.9429 59.6685 16.6009V16.5097C59.6685 16.1677 59.8166 15.8598 60.0444 15.6318C60.2723 15.4038 60.5913 15.267 60.9558 15.267H61.2178V17.7865V17.8435ZM59.8052 16.5097C59.8052 16.2019 59.9419 15.9282 60.147 15.723C60.352 15.5178 60.6368 15.3924 60.9558 15.3924H61.0811V17.7181H60.9558C60.6482 17.7181 60.352 17.5927 60.147 17.3875C59.9305 17.1937 59.8052 16.9087 59.8052 16.6009V16.5097ZM60.8679 16.5682C60.8679 16.6819 60.7876 16.7627 60.6794 16.7627C60.5711 16.7627 60.4806 16.6708 60.4806 16.5682C60.4806 16.4657 60.5704 16.3816 60.6794 16.3816C60.7883 16.3816 60.8679 16.4546 60.8679 16.5682ZM60.6793 16.6737C60.6179 16.6737 60.5717 16.6334 60.5717 16.5682C60.5717 16.5031 60.6305 16.4644 60.6793 16.4644C60.7282 16.4644 60.787 16.501 60.787 16.5682C60.787 16.6354 60.7408 16.6737 60.6793 16.6737Z" fill="#29313C"/>
<path fill-rule="evenodd" clip-rule="evenodd" d="M14.7352 38.3138V35.7487C14.7352 35.4751 14.8492 35.2129 15.0314 35.0305C15.2137 34.848 15.4643 34.734 15.7491 34.734C16.0225 34.734 16.2846 34.848 16.4668 35.0305C16.6491 35.2129 16.763 35.4637 16.763 35.7487V38.3138H14.8036H14.7352ZM16.3871 35.1217C16.2276 34.962 15.9998 34.8594 15.7491 34.8594C15.4985 34.8594 15.2707 34.962 15.1112 35.1217C14.9517 35.2813 14.8492 35.5093 14.8492 35.7601V37.1851H16.6491V35.7601C16.6491 35.5093 16.5466 35.2813 16.3871 35.1217ZM16.6491 37.2991H14.8492V38.2112H16.6491V37.2991Z" fill="#29313C"/>
<path fill-rule="evenodd" clip-rule="evenodd" d="M21.0009 38.3138V37.379C21.0009 36.9115 20.8187 36.4897 20.5111 36.1819C20.2149 35.8741 19.8048 35.6803 19.3491 35.6803C18.8934 35.6803 18.4833 35.8741 18.1871 36.1819C17.8909 36.4897 17.7086 36.9115 17.7086 37.379V38.3138H21.0009ZM17.8453 37.379C17.8453 36.9457 18.0162 36.5581 18.2896 36.2731C18.563 35.9881 18.939 35.8171 19.3719 35.8171C19.7934 35.8171 20.1693 35.9881 20.4427 36.2731C20.7161 36.5581 20.887 36.9457 20.887 37.379V38.1884H17.8453V37.379ZM18.0618 37.5956V37.3334C18.0618 36.9799 18.1985 36.6607 18.4263 36.4213C18.6542 36.1933 18.9617 36.0451 19.3035 36.0451H19.3946C19.7364 36.0451 20.044 36.1933 20.2718 36.4213C20.4997 36.6493 20.6364 36.9685 20.6364 37.3334V37.5956H18.1187H18.0618ZM19.3946 36.1819C19.7022 36.1819 19.9756 36.3187 20.1807 36.5239C20.3858 36.7291 20.5111 37.0141 20.5111 37.3334V37.4588H18.1871V37.3334C18.1871 37.0255 18.3124 36.7291 18.5175 36.5239C18.7111 36.3073 18.9959 36.1819 19.3035 36.1819H19.3946ZM19.3361 37.2454C19.2226 37.2454 19.1418 37.165 19.1418 37.0567C19.1418 36.9484 19.2336 36.8578 19.3361 36.8578C19.4386 36.8578 19.5227 36.9477 19.5227 37.0567C19.5227 37.1657 19.4497 37.2454 19.3361 37.2454ZM19.2307 37.0567C19.2307 36.9953 19.271 36.949 19.3361 36.949C19.4012 36.949 19.4399 37.0078 19.4399 37.0567C19.4399 37.1056 19.4033 37.1644 19.3361 37.1644C19.269 37.1644 19.2307 37.1182 19.2307 37.0567Z" fill="#29313C"/>
<path fill-rule="evenodd" clip-rule="evenodd" d="M12.81 27.8824H9.5177V27.928V34.9735H12.81V27.8824ZM12.7075 27.9736V34.8823H9.60884V27.9736H12.7075ZM9.87085 33.4116V29.4671C9.87085 29.1136 10.0076 28.8286 10.224 28.6234C10.4632 28.4068 10.7822 28.2928 11.1468 28.2928C11.5113 28.2928 11.8417 28.4068 12.0695 28.6234C12.286 28.8286 12.4227 29.1136 12.4227 29.4671V33.4116C12.4227 33.765 12.286 34.05 12.0695 34.2552C11.8303 34.4718 11.5113 34.5858 11.1468 34.5858C10.7822 34.5858 10.4519 34.4718 10.224 34.2552C10.0076 34.05 9.87085 33.765 9.87085 33.4116ZM12.3429 33.4116C12.3429 33.7422 12.2176 34.0044 12.0126 34.1868C11.7961 34.3806 11.4885 34.4832 11.1468 34.4946C10.805 34.4946 10.4974 34.3806 10.281 34.1868C10.0759 33.993 9.9506 33.7422 9.9506 33.4116V29.467C9.9506 29.1364 10.0759 28.8742 10.281 28.6918C10.4974 28.4866 10.805 28.384 11.1468 28.384C11.4885 28.384 11.7961 28.498 12.0126 28.6918C12.2176 28.8856 12.3429 29.1364 12.3429 29.467V33.4116ZM11.1403 33.8607C11.0267 33.8607 10.946 33.7803 10.946 33.672C10.946 33.5637 11.0378 33.473 11.1403 33.473C11.2427 33.473 11.3268 33.563 11.3268 33.672C11.3268 33.781 11.2538 33.8607 11.1403 33.8607ZM11.0348 33.672C11.0348 33.6105 11.0751 33.5642 11.1403 33.5642C11.2054 33.5642 11.244 33.6231 11.244 33.672C11.244 33.7209 11.2074 33.7797 11.1403 33.7797C11.0731 33.7797 11.0348 33.7334 11.0348 33.672Z" fill="#29313C"/>
<path d="M53.4797 59.245H58.31V61.6391H53.4797V59.245Z" fill="white"/>
<path fill-rule="evenodd" clip-rule="evenodd" d="M53.4114 61.6961V59.188H58.3555V61.6961H53.4114ZM53.5253 61.5821H58.2416V59.302H53.5253V61.5821Z" fill="#171924"/>
<rect x="53.4227" y="59.9404" width="4.94416" height="0.136803" fill="#171924"/>
<path d="M33.7258 59.245H41.8484V61.6391H33.7258V59.245Z" fill="white"/>
<path fill-rule="evenodd" clip-rule="evenodd" d="M33.6575 61.6961V59.188H41.894V61.6961H33.6575ZM33.7714 61.5821H41.78V59.302H33.7714V61.5821Z" fill="#171924"/>
<rect x="33.6688" y="59.9404" width="8.23647" height="0.136803" fill="#171924"/>
<path d="M14.234 59.245H22.3566V61.6391H14.234V59.245Z" fill="white"/>
<path fill-rule="evenodd" clip-rule="evenodd" d="M14.177 61.6961V59.188H22.4135V61.6961H14.177ZM14.2909 61.5821H22.2996V59.302H14.2909V61.5821Z" fill="#171924"/>
<rect x="14.177" y="59.9404" width="8.23648" height="0.136803" fill="#171924"/>
<path d="M14.234 8.12543H22.3566V10.5195H14.234V8.12543Z" fill="white"/>
<path fill-rule="evenodd" clip-rule="evenodd" d="M14.177 10.5765V8.06842H22.4135V10.5765H14.177ZM14.2909 10.4625H22.2996V8.18242H14.2909V10.4625Z" fill="#171924"/>
<rect x="14.177" y="9.68729" width="8.23648" height="0.136805" fill="#171924"/>
<path d="M33.7258 8.12543H41.8484V10.5195H33.7258V8.12543Z" fill="white"/>
<path fill-rule="evenodd" clip-rule="evenodd" d="M33.6575 10.5765V8.06842H41.894V10.5765H33.6575ZM33.7714 10.4625H41.78V8.18242H33.7714V10.4625Z" fill="#171924"/>
<rect x="33.6688" y="9.68729" width="8.23647" height="0.136805" fill="#171924"/>
<path d="M54.2999 8.12543H60.2238V10.5195H54.2999L54.2999 8.12543Z" fill="white"/>
<path fill-rule="evenodd" clip-rule="evenodd" d="M54.2429 10.5765V8.06842H60.2807V10.5765H54.2429ZM54.3568 10.4625H60.1668V8.18242H54.3568V10.4625Z" fill="#171924"/>
<rect x="54.2429" y="9.68729" width="6.03781" height="0.136805" fill="#171924"/>
<path opacity="0.2" d="M15.2713 66.4155C16.2242 67.8668 15.6714 69.7458 14.0454 70.5856C12.4239 71.4377 10.3237 70.9424 9.38334 69.4854C8.42655 68.0279 8.98394 66.1608 10.6129 65.3188C12.2343 64.4675 14.3324 64.9606 15.2713 66.4155Z" fill="#0B1739" fill-opacity="0.2"/>
<path fill-rule="evenodd" clip-rule="evenodd" d="M12.6976 68.6144L9.94389 69.0596L11.7638 67.1841L14.5104 66.728L12.6976 68.6144ZM11.973 67.508L10.657 68.7138L12.503 68.2941L11.973 67.508Z" fill="#FF0000"/>
<path fill-rule="evenodd" clip-rule="evenodd" d="M12.6976 68.6144L9.94389 69.0596L11.7638 67.1841L14.5104 66.728L12.6976 68.6144ZM11.973 67.508L10.657 68.7138L12.503 68.2941L11.973 67.508Z" fill="#0B1739"/>
<path fill-rule="evenodd" clip-rule="evenodd" d="M7.72169 71.0411C7.58533 71.0411 7.46215 71.0147 7.35216 70.9619C7.24217 70.9091 7.15598 70.8361 7.09359 70.743C7.0312 70.6499 7 70.5448 7 70.4278C7 70.3108 7.03152 70.2058 7.09455 70.1127C7.15759 70.0195 7.2441 69.9466 7.35409 69.8938C7.46408 69.8409 7.58726 69.8145 7.72362 69.8145C7.83426 69.8145 7.93524 69.8316 8.02658 69.8657C8.11792 69.8997 8.1951 69.9491 8.25814 70.0139L8.09605 70.1484C7.99828 70.0553 7.878 70.0087 7.7352 70.0087C7.64258 70.0087 7.5596 70.0266 7.48628 70.0624C7.41295 70.0982 7.3557 70.1479 7.31454 70.2115C7.27337 70.2751 7.25279 70.3472 7.25279 70.4278C7.25279 70.5085 7.27337 70.5806 7.31454 70.6442C7.3557 70.7078 7.41295 70.7575 7.48628 70.7932C7.5596 70.829 7.64258 70.8469 7.7352 70.8469C7.878 70.8469 7.99828 70.7998 8.09605 70.7055L8.25814 70.8418C8.1951 70.9065 8.1176 70.9559 8.02562 70.99C7.93363 71.0241 7.83233 71.0411 7.72169 71.0411Z" fill="#FF0000"/>
<path fill-rule="evenodd" clip-rule="evenodd" d="M7.72169 71.0411C7.58533 71.0411 7.46215 71.0147 7.35216 70.9619C7.24217 70.9091 7.15598 70.8361 7.09359 70.743C7.0312 70.6499 7 70.5448 7 70.4278C7 70.3108 7.03152 70.2058 7.09455 70.1127C7.15759 70.0195 7.2441 69.9466 7.35409 69.8938C7.46408 69.8409 7.58726 69.8145 7.72362 69.8145C7.83426 69.8145 7.93524 69.8316 8.02658 69.8657C8.11792 69.8997 8.1951 69.9491 8.25814 70.0139L8.09605 70.1484C7.99828 70.0553 7.878 70.0087 7.7352 70.0087C7.64258 70.0087 7.5596 70.0266 7.48628 70.0624C7.41295 70.0982 7.3557 70.1479 7.31454 70.2115C7.27337 70.2751 7.25279 70.3472 7.25279 70.4278C7.25279 70.5085 7.27337 70.5806 7.31454 70.6442C7.3557 70.7078 7.41295 70.7575 7.48628 70.7932C7.5596 70.829 7.64258 70.8469 7.7352 70.8469C7.878 70.8469 7.99828 70.7998 8.09605 70.7055L8.25814 70.8418C8.1951 70.9065 8.1176 70.9559 8.02562 70.99C7.93363 71.0241 7.83233 71.0411 7.72169 71.0411Z" fill="#0B1739"/>
<path fill-rule="evenodd" clip-rule="evenodd" d="M17.4301 64.9032C17.5626 64.9032 17.6819 64.9296 17.788 64.9824C17.8941 65.0353 17.9774 65.1082 18.0379 65.2014C18.0984 65.2945 18.1286 65.3995 18.1286 65.5165C18.1286 65.6335 18.0984 65.7385 18.0379 65.8317C17.9774 65.9248 17.8941 65.9978 17.788 66.0506C17.6819 66.1034 17.5626 66.1298 17.4301 66.1298C17.3091 66.1298 17.1988 66.1076 17.0991 66.0633C16.9994 66.0191 16.9177 65.9572 16.8541 65.8777C16.7904 65.7982 16.7508 65.7079 16.7354 65.6068H16.5231V66.1128H16.2761V64.9203H16.5231V65.4092H16.7392C16.7573 65.3104 16.7981 65.2226 16.8618 65.146C16.9255 65.0693 17.0065 65.0097 17.1049 64.9671C17.2033 64.9245 17.3117 64.9032 17.4301 64.9032ZM17.4301 65.9356C17.5137 65.9356 17.5896 65.918 17.6578 65.8828C17.726 65.8476 17.7794 65.7982 17.818 65.7346C17.8566 65.671 17.8759 65.5983 17.8759 65.5165C17.8759 65.4347 17.8566 65.3621 17.818 65.2985C17.7794 65.2349 17.726 65.1855 17.6578 65.1502C17.5896 65.115 17.5137 65.0974 17.4301 65.0974C17.3465 65.0974 17.2709 65.115 17.2034 65.1502C17.1358 65.1855 17.0824 65.2349 17.0432 65.2985C17.004 65.3621 16.9844 65.4347 16.9844 65.5165C16.9844 65.5983 17.004 65.671 17.0432 65.7346C17.0824 65.7982 17.1358 65.8476 17.2034 65.8828C17.2709 65.918 17.3465 65.9356 17.4301 65.9356Z" fill="#FF0000"/>
<path fill-rule="evenodd" clip-rule="evenodd" d="M17.4301 64.9032C17.5626 64.9032 17.6819 64.9296 17.788 64.9824C17.8941 65.0353 17.9774 65.1082 18.0379 65.2014C18.0984 65.2945 18.1286 65.3995 18.1286 65.5165C18.1286 65.6335 18.0984 65.7385 18.0379 65.8317C17.9774 65.9248 17.8941 65.9978 17.788 66.0506C17.6819 66.1034 17.5626 66.1298 17.4301 66.1298C17.3091 66.1298 17.1988 66.1076 17.0991 66.0633C16.9994 66.0191 16.9177 65.9572 16.8541 65.8777C16.7904 65.7982 16.7508 65.7079 16.7354 65.6068H16.5231V66.1128H16.2761V64.9203H16.5231V65.4092H16.7392C16.7573 65.3104 16.7981 65.2226 16.8618 65.146C16.9255 65.0693 17.0065 65.0097 17.1049 64.9671C17.2033 64.9245 17.3117 64.9032 17.4301 64.9032ZM17.4301 65.9356C17.5137 65.9356 17.5896 65.918 17.6578 65.8828C17.726 65.8476 17.7794 65.7982 17.818 65.7346C17.8566 65.671 17.8759 65.5983 17.8759 65.5165C17.8759 65.4347 17.8566 65.3621 17.818 65.2985C17.7794 65.2349 17.726 65.1855 17.6578 65.1502C17.5896 65.115 17.5137 65.0974 17.4301 65.0974C17.3465 65.0974 17.2709 65.115 17.2034 65.1502C17.1358 65.1855 17.0824 65.2349 17.0432 65.2985C17.004 65.3621 16.9844 65.4347 16.9844 65.5165C16.9844 65.5983 17.004 65.671 17.0432 65.7346C17.0824 65.7982 17.1358 65.8476 17.2034 65.8828C17.2709 65.918 17.3465 65.9356 17.4301 65.9356Z" fill="#0B1739"/>
<path d="M60.3118 65.8142H61.2154V65.9869L60.7073 67.2198H60.5025L61.0146 65.9869H60.3118V65.8142ZM61.4407 67.009H61.6455L61.4869 67.521H61.3443L61.4407 67.009ZM62.4161 67.2359C62.3425 67.2359 62.2755 67.2238 62.2153 67.1997C62.1564 67.1756 62.1062 67.1375 62.0647 67.0853C62.0232 67.0317 61.9911 66.9635 61.9683 66.8805C61.9456 66.7961 61.9342 66.6944 61.9342 66.5752V66.4588C61.9342 66.341 61.9456 66.2406 61.9683 66.1576C61.9911 66.0732 62.0232 66.005 62.0647 65.9527C62.1075 65.8992 62.1584 65.8604 62.2173 65.8363C62.2776 65.8108 62.3438 65.7981 62.4161 65.7981C62.4897 65.7981 62.556 65.8102 62.6149 65.8343C62.6751 65.8584 62.726 65.8972 62.7675 65.9507C62.809 66.003 62.8411 66.0712 62.8639 66.1556C62.8867 66.2386 62.898 66.3396 62.898 66.4588V66.5752C62.898 66.693 62.8867 66.7941 62.8639 66.8785C62.8411 66.9615 62.8083 67.0297 62.7655 67.0833C62.724 67.1355 62.6731 67.1743 62.6129 67.1997C62.554 67.2238 62.4884 67.2359 62.4161 67.2359ZM62.4161 67.0552C62.4603 67.0552 62.4998 67.0478 62.5346 67.0331C62.5707 67.017 62.6008 66.9909 62.6249 66.9548C62.649 66.9173 62.6678 66.8677 62.6812 66.8062C62.6946 66.7446 62.7012 66.6676 62.7012 66.5752V66.4588C62.7012 66.3664 62.6946 66.2901 62.6812 66.2299C62.6678 66.1683 62.6484 66.1187 62.6229 66.0813C62.5988 66.0438 62.5687 66.0177 62.5326 66.003C62.4978 65.9869 62.4589 65.9789 62.4161 65.9789C62.3719 65.9789 62.3318 65.9869 62.2956 66.003C62.2608 66.0177 62.2314 66.0438 62.2073 66.0813C62.1832 66.1174 62.1644 66.1663 62.151 66.2279C62.1377 66.2894 62.131 66.3664 62.131 66.4588V66.5752C62.131 66.6676 62.1377 66.7446 62.151 66.8062C62.1644 66.8664 62.1832 66.9153 62.2073 66.9527C62.2327 66.9902 62.2628 67.017 62.2976 67.0331C62.3338 67.0478 62.3733 67.0552 62.4161 67.0552ZM63.097 66.017L63.3902 65.8142H63.579V67.2198H63.3902V66.023L63.097 66.2218V66.017Z" fill="#29313C"/>
<path d="M41.7389 49.6917V52.5029H41.3413V50.0411H40.7068V49.6917H41.7389ZM43.2806 49.6917V52.5029H42.883V50.0411H42.2484V49.6917H43.2806ZM45.6696 51.029C45.8302 51.0906 45.9534 51.179 46.0391 51.2941C46.1248 51.4092 46.1676 51.5471 46.1676 51.7077C46.1676 51.8764 46.1221 52.0237 46.031 52.1495C45.94 52.2727 45.8102 52.3677 45.6415 52.4347C45.4728 52.5016 45.2747 52.5351 45.0471 52.5351C44.8222 52.5351 44.6254 52.5016 44.4567 52.4347C44.2908 52.3677 44.1622 52.2727 44.0712 52.1495C43.9802 52.0237 43.9347 51.8764 43.9347 51.7077C43.9347 51.5471 43.9762 51.4092 44.0592 51.2941C44.1448 51.179 44.268 51.0906 44.4286 51.029C44.3001 50.9675 44.2024 50.8858 44.1355 50.7841C44.0685 50.6823 44.0351 50.5618 44.0351 50.4226C44.0351 50.2673 44.0766 50.1321 44.1596 50.017C44.2452 49.9019 44.3644 49.8135 44.517 49.7519C44.6696 49.6903 44.8463 49.6596 45.0471 49.6596C45.2506 49.6596 45.4286 49.6903 45.5812 49.7519C45.7365 49.8135 45.8557 49.9019 45.9387 50.017C46.0244 50.1321 46.0672 50.2673 46.0672 50.4226C46.0672 50.5592 46.0324 50.6796 45.9628 50.7841C45.8958 50.8858 45.7981 50.9675 45.6696 51.029ZM45.0471 49.9849C44.857 49.9849 44.7071 50.0264 44.5973 50.1094C44.4875 50.1897 44.4327 50.2994 44.4327 50.4387C44.4327 50.5779 44.4862 50.6877 44.5933 50.768C44.7031 50.8483 44.8543 50.8885 45.0471 50.8885C45.2426 50.8885 45.3952 50.8483 45.5049 50.768C45.6174 50.6877 45.6736 50.5779 45.6736 50.4387C45.6736 50.2994 45.6161 50.1897 45.5009 50.1094C45.3885 50.0264 45.2372 49.9849 45.0471 49.9849ZM45.0471 52.2098C45.2693 52.2098 45.4447 52.1642 45.5732 52.0732C45.7017 51.9795 45.766 51.8537 45.766 51.6957C45.766 51.5404 45.7017 51.4186 45.5732 51.3302C45.4447 51.2392 45.2693 51.1937 45.0471 51.1937C44.8249 51.1937 44.6509 51.2392 44.525 51.3302C44.3992 51.4186 44.3363 51.5404 44.3363 51.6957C44.3363 51.8537 44.3992 51.9795 44.525 52.0732C44.6509 52.1642 44.8249 52.2098 45.0471 52.2098ZM46.8988 51.9768C46.9738 51.9768 47.0353 52.0036 47.0835 52.0571C47.1344 52.108 47.1598 52.1723 47.1598 52.2499C47.1598 52.2901 47.1545 52.3289 47.1438 52.3664C47.1357 52.4039 47.1183 52.4614 47.0916 52.5391L46.9028 53.0973H46.6498L46.7984 52.4989C46.7475 52.4802 46.706 52.4494 46.6739 52.4065C46.6444 52.361 46.6297 52.3088 46.6297 52.2499C46.6297 52.1696 46.6552 52.104 46.706 52.0531C46.7569 52.0023 46.8212 51.9768 46.8988 51.9768ZM48.4153 49.6917V52.5029H48.0177V50.0411H47.3832V49.6917H48.4153ZM49.957 49.6917V52.5029H49.5594V50.0411H48.9248V49.6917H49.957Z" fill="#FF0000"/>
<path d="M41.7389 49.6917V52.5029H41.3413V50.0411H40.7068V49.6917H41.7389ZM43.2806 49.6917V52.5029H42.883V50.0411H42.2484V49.6917H43.2806ZM45.6696 51.029C45.8302 51.0906 45.9534 51.179 46.0391 51.2941C46.1248 51.4092 46.1676 51.5471 46.1676 51.7077C46.1676 51.8764 46.1221 52.0237 46.031 52.1495C45.94 52.2727 45.8102 52.3677 45.6415 52.4347C45.4728 52.5016 45.2747 52.5351 45.0471 52.5351C44.8222 52.5351 44.6254 52.5016 44.4567 52.4347C44.2908 52.3677 44.1622 52.2727 44.0712 52.1495C43.9802 52.0237 43.9347 51.8764 43.9347 51.7077C43.9347 51.5471 43.9762 51.4092 44.0592 51.2941C44.1448 51.179 44.268 51.0906 44.4286 51.029C44.3001 50.9675 44.2024 50.8858 44.1355 50.7841C44.0685 50.6823 44.0351 50.5618 44.0351 50.4226C44.0351 50.2673 44.0766 50.1321 44.1596 50.017C44.2452 49.9019 44.3644 49.8135 44.517 49.7519C44.6696 49.6903 44.8463 49.6596 45.0471 49.6596C45.2506 49.6596 45.4286 49.6903 45.5812 49.7519C45.7365 49.8135 45.8557 49.9019 45.9387 50.017C46.0244 50.1321 46.0672 50.2673 46.0672 50.4226C46.0672 50.5592 46.0324 50.6796 45.9628 50.7841C45.8958 50.8858 45.7981 50.9675 45.6696 51.029ZM45.0471 49.9849C44.857 49.9849 44.7071 50.0264 44.5973 50.1094C44.4875 50.1897 44.4327 50.2994 44.4327 50.4387C44.4327 50.5779 44.4862 50.6877 44.5933 50.768C44.7031 50.8483 44.8543 50.8885 45.0471 50.8885C45.2426 50.8885 45.3952 50.8483 45.5049 50.768C45.6174 50.6877 45.6736 50.5779 45.6736 50.4387C45.6736 50.2994 45.6161 50.1897 45.5009 50.1094C45.3885 50.0264 45.2372 49.9849 45.0471 49.9849ZM45.0471 52.2098C45.2693 52.2098 45.4447 52.1642 45.5732 52.0732C45.7017 51.9795 45.766 51.8537 45.766 51.6957C45.766 51.5404 45.7017 51.4186 45.5732 51.3302C45.4447 51.2392 45.2693 51.1937 45.0471 51.1937C44.8249 51.1937 44.6509 51.2392 44.525 51.3302C44.3992 51.4186 44.3363 51.5404 44.3363 51.6957C44.3363 51.8537 44.3992 51.9795 44.525 52.0732C44.6509 52.1642 44.8249 52.2098 45.0471 52.2098ZM46.8988 51.9768C46.9738 51.9768 47.0353 52.0036 47.0835 52.0571C47.1344 52.108 47.1598 52.1723 47.1598 52.2499C47.1598 52.2901 47.1545 52.3289 47.1438 52.3664C47.1357 52.4039 47.1183 52.4614 47.0916 52.5391L46.9028 53.0973H46.6498L46.7984 52.4989C46.7475 52.4802 46.706 52.4494 46.6739 52.4065C46.6444 52.361 46.6297 52.3088 46.6297 52.2499C46.6297 52.1696 46.6552 52.104 46.706 52.0531C46.7569 52.0023 46.8212 51.9768 46.8988 51.9768ZM48.4153 49.6917V52.5029H48.0177V50.0411H47.3832V49.6917H48.4153ZM49.957 49.6917V52.5029H49.5594V50.0411H48.9248V49.6917H49.957Z" fill="#0B1739"/>
<path d="M42.4307 48.0441C42.0358 48.0441 41.7296 47.9387 41.512 47.7278C41.2945 47.5137 41.1824 47.2108 41.1757 46.8192H41.8082C41.8149 47.0501 41.8701 47.2191 41.9739 47.3262C42.0776 47.43 42.2299 47.4819 42.4307 47.4819C42.6382 47.4819 42.7938 47.435 42.8976 47.3413C43.0013 47.2442 43.0532 47.1154 43.0532 46.9548C43.0532 46.8108 43.003 46.692 42.9026 46.5983C42.8056 46.5046 42.66 46.4578 42.4659 46.4578H42.004V45.9256H42.4659C42.6265 45.9256 42.752 45.8838 42.8424 45.8001C42.9327 45.7165 42.9779 45.6077 42.9779 45.4738C42.9779 45.3333 42.9311 45.2195 42.8373 45.1325C42.747 45.0455 42.6114 45.0019 42.4307 45.0019C42.0961 45.0019 41.9137 45.1894 41.8835 45.5642H41.251C41.2577 45.2128 41.3631 44.9384 41.5673 44.7409C41.7748 44.5401 42.0626 44.4397 42.4307 44.4397C42.6248 44.4397 42.7955 44.4648 42.9428 44.515C43.09 44.5619 43.2122 44.6288 43.3092 44.7158C43.4096 44.8028 43.4849 44.9082 43.5351 45.0321C43.5853 45.1525 43.6104 45.2864 43.6104 45.4337C43.6104 45.5943 43.5753 45.7399 43.505 45.8704C43.4347 46.0009 43.326 46.1064 43.1787 46.1867C43.3494 46.2704 43.4766 46.3841 43.5602 46.528C43.6439 46.6686 43.6857 46.8259 43.6857 46.9999C43.6857 47.1539 43.659 47.2961 43.6054 47.4266C43.5519 47.5538 43.4716 47.6643 43.3645 47.758C43.2607 47.8483 43.1302 47.9186 42.9729 47.9688C42.8189 48.019 42.6382 48.0441 42.4307 48.0441ZM45.0717 46.9497H44.8207V47.9989H44.2383V45.4889H44.8207V46.4377H45.0717L45.6741 45.4889H46.3468L45.5536 46.6736L46.4472 47.9989H45.7444L45.0717 46.9497Z" fill="#FF0000"/>
<path d="M42.4307 48.0441C42.0358 48.0441 41.7296 47.9387 41.512 47.7278C41.2945 47.5137 41.1824 47.2108 41.1757 46.8192H41.8082C41.8149 47.0501 41.8701 47.2191 41.9739 47.3262C42.0776 47.43 42.2299 47.4819 42.4307 47.4819C42.6382 47.4819 42.7938 47.435 42.8976 47.3413C43.0013 47.2442 43.0532 47.1154 43.0532 46.9548C43.0532 46.8108 43.003 46.692 42.9026 46.5983C42.8056 46.5046 42.66 46.4578 42.4659 46.4578H42.004V45.9256H42.4659C42.6265 45.9256 42.752 45.8838 42.8424 45.8001C42.9327 45.7165 42.9779 45.6077 42.9779 45.4738C42.9779 45.3333 42.9311 45.2195 42.8373 45.1325C42.747 45.0455 42.6114 45.0019 42.4307 45.0019C42.0961 45.0019 41.9137 45.1894 41.8835 45.5642H41.251C41.2577 45.2128 41.3631 44.9384 41.5673 44.7409C41.7748 44.5401 42.0626 44.4397 42.4307 44.4397C42.6248 44.4397 42.7955 44.4648 42.9428 44.515C43.09 44.5619 43.2122 44.6288 43.3092 44.7158C43.4096 44.8028 43.4849 44.9082 43.5351 45.0321C43.5853 45.1525 43.6104 45.2864 43.6104 45.4337C43.6104 45.5943 43.5753 45.7399 43.505 45.8704C43.4347 46.0009 43.326 46.1064 43.1787 46.1867C43.3494 46.2704 43.4766 46.3841 43.5602 46.528C43.6439 46.6686 43.6857 46.8259 43.6857 46.9999C43.6857 47.1539 43.659 47.2961 43.6054 47.4266C43.5519 47.5538 43.4716 47.6643 43.3645 47.758C43.2607 47.8483 43.1302 47.9186 42.9729 47.9688C42.8189 48.019 42.6382 48.0441 42.4307 48.0441ZM45.0717 46.9497H44.8207V47.9989H44.2383V45.4889H44.8207V46.4377H45.0717L45.6741 45.4889H46.3468L45.5536 46.6736L46.4472 47.9989H45.7444L45.0717 46.9497Z" fill="#0B1739"/>
<path fill-rule="evenodd" clip-rule="evenodd" d="M70.4819 33.0666H58.6868V35.3212H70.4819V33.0666ZM58.8193 35.1886V33.1992H70.3494V35.1886H58.8193Z" fill="#29313C"/>
<path d="M59.8795 34.2602V34.1276H69.4217V34.2602H59.8795Z" fill="#29313C"/>
<path d="M60.2771 33.5971H60.4096V34.9233H60.2771V33.5971Z" fill="#29313C"/>
<path d="M60.8073 33.5971H60.9398V34.9233H60.8073V33.5971Z" fill="#29313C"/>
<path d="M61.4698 33.5971H61.6024V34.9233H61.4698V33.5971Z" fill="#29313C"/>
<path d="M63.0603 33.5971H63.1928V34.9233H63.0603V33.5971Z" fill="#29313C"/>
<path d="M63.9879 33.5971H64.1204V34.9233H63.9879V33.5971Z" fill="#29313C"/>
<path d="M66.9037 33.5971H67.0362V34.9233H66.9037V33.5971Z" fill="#29313C"/>
<path d="M64.5181 33.5971H64.6506V34.9233H64.5181V33.5971Z" fill="#29313C"/>
<path d="M67.4337 33.5971H67.5662V34.9233H67.4337V33.5971Z" fill="#29313C"/>
<path d="M65.1808 33.5971H65.3133V34.9233H65.1808V33.5971Z" fill="#29313C"/>
<path d="M68.0964 33.5971H68.229V34.9233H68.0964V33.5971Z" fill="#29313C"/>
<path d="M68.759 33.5971H68.8916V34.9233H68.759V33.5971Z" fill="#29313C"/>
<path d="M62.1841 33.6826L62.3122 33.6486L62.6621 34.9705L62.534 35.0044L62.1841 33.6826Z" fill="#29313C"/>
<path d="M66.3729 33.6826L66.2448 33.6486L65.8949 34.9705L66.023 35.0044L66.3729 33.6826Z" fill="#29313C"/>
<path fill-rule="evenodd" clip-rule="evenodd" d="M28.275 36.2277V48.0315H30.528V36.2277H28.275ZM30.3955 36.3603V47.8989H28.4076V36.3603H30.3955Z" fill="#29313C"/>
<path d="M29.4677 46.8378H29.3352V37.2887H29.4677V46.8378Z" fill="#29313C"/>
<path d="M28.8051 46.44V46.3074H30.1304V46.44H28.8051Z" fill="#29313C"/>
<path d="M28.8051 45.9095V45.7768H30.1304V45.9095H28.8051Z" fill="#29313C"/>
<path d="M28.8051 45.2463V45.1137H30.1304V45.2463H28.8051Z" fill="#29313C"/>
<path d="M28.8051 43.6548V43.5222H30.1304V43.6548H28.8051Z" fill="#29313C"/>
<path d="M28.8051 42.7264V42.5938H30.1304V42.7264H28.8051Z" fill="#29313C"/>
<path d="M28.8051 39.8086V39.676H30.1304V39.8086H28.8051Z" fill="#29313C"/>
<path d="M28.8051 42.1959V42.0633H30.1304V42.1959H28.8051Z" fill="#29313C"/>
<path d="M28.8051 39.2781V39.1454H30.1304V39.2781H28.8051Z" fill="#29313C"/>
<path d="M28.8051 41.5327V41.4001H30.1304V41.5327H28.8051Z" fill="#29313C"/>
<path d="M28.8051 38.615V38.4823H30.1304V38.615H28.8051Z" fill="#29313C"/>
<path d="M28.8051 37.9518V37.8192H30.1304V37.9518H28.8051Z" fill="#29313C"/>
<path d="M28.8905 44.5316L28.8566 44.4034L30.1775 44.0533L30.2114 44.1815L28.8905 44.5316Z" fill="#29313C"/>
<path d="M30.1775 40.8181L30.2114 40.6899L28.8905 40.3397L28.8566 40.4679L30.1775 40.8181Z" fill="#29313C"/>
<path fill-rule="evenodd" clip-rule="evenodd" d="M30.3253 19.6712V26.8331H32.5783V19.6712H30.3253ZM32.4458 26.7004H30.4578V19.8038H32.4458V26.7004Z" fill="#29313C"/>
<path d="M31.518 26.3026H31.3855V20.467H31.518V26.3026Z" fill="#29313C"/>
<path d="M30.8555 25.9047V25.7721H32.1808V25.9047H30.8555Z" fill="#29313C"/>
<path d="M30.8555 25.3742V25.2415H32.1808V25.3742H30.8555Z" fill="#29313C"/>
<path d="M30.8555 24.7111V24.5784H32.1808V24.7111H30.8555Z" fill="#29313C"/>
<path d="M30.8555 23.1195V22.9869H32.1808V23.1195H30.8555Z" fill="#29313C"/>
<path d="M30.8555 22.1911V22.0585H32.1808V22.1911H30.8555Z" fill="#29313C"/>
<path d="M30.8555 21.6606V21.528H32.1808V21.6606H30.8555Z" fill="#29313C"/>
<path d="M30.8555 20.9975V20.8649H32.1808V20.9975H30.8555Z" fill="#29313C"/>
<path d="M30.9409 23.9964L30.907 23.8682L32.2279 23.518L32.2618 23.6462L30.9409 23.9964Z" fill="#29313C"/>
<path fill-rule="evenodd" clip-rule="evenodd" d="M9.51806 26.8331H16.6747V24.5784H9.51806V26.8331ZM16.5422 24.711V26.7004H9.65059V24.711H16.5422Z" fill="#29313C"/>
<path d="M16.1445 25.6394V25.7721H10.3132V25.6394H16.1445Z" fill="#29313C"/>
<path d="M15.7469 26.3026H15.6144V24.9763H15.7469V26.3026Z" fill="#29313C"/>
<path d="M15.2169 26.3026H15.0844V24.9763H15.2169V26.3026Z" fill="#29313C"/>
<path d="M14.5542 26.3026H14.4217V24.9763H14.5542V26.3026Z" fill="#29313C"/>
<path d="M12.9639 26.3026H12.8313V24.9763H12.9639V26.3026Z" fill="#29313C"/>
<path d="M12.0361 26.3026H11.9036V24.9763H12.0361V26.3026Z" fill="#29313C"/>
<path d="M11.506 26.3026H11.3735V24.9763H11.506V26.3026Z" fill="#29313C"/>
<path d="M10.8434 26.3026H10.7109V24.9763H10.8434V26.3026Z" fill="#29313C"/>
<path d="M13.8401 26.2171L13.712 26.251L13.3621 24.9292L13.4902 24.8952L13.8401 26.2171Z" fill="#29313C"/>
<path fill-rule="evenodd" clip-rule="evenodd" d="M62.9278 12.7746L70.6145 12.7746V10.5199H62.9278V12.7746ZM70.482 10.6526V12.642L63.0603 12.642V10.6526H70.482Z" fill="#29313C"/>
<path d="M69.5542 11.5809V11.7136H63.7229V11.5809H69.5542Z" fill="#29313C"/>
<path d="M69.1566 12.2441H69.0241V10.9178H69.1566V12.2441Z" fill="#29313C"/>
<path d="M68.6265 12.2441H68.4939V10.9178H68.6265V12.2441Z" fill="#29313C"/>
<path d="M67.9639 12.2441H67.8313V10.9178H67.9639V12.2441Z" fill="#29313C"/>
<path d="M66.3735 12.2441H66.241V10.9178H66.3735V12.2441Z" fill="#29313C"/>
<path d="M65.4458 12.2441H65.3133V10.9178H65.4458V12.2441Z" fill="#29313C"/>
<path d="M64.9156 12.2441H64.7831V10.9178H64.9156V12.2441Z" fill="#29313C"/>
<path d="M64.2531 12.2441H64.1205V10.9178H64.2531V12.2441Z" fill="#29313C"/>
<path d="M67.2498 12.1586L67.1216 12.1925L66.7717 10.8707L66.8998 10.8367L67.2498 12.1586Z" fill="#29313C"/>
<path fill-rule="evenodd" clip-rule="evenodd" d="M70.7502 19.089V12.642H68.4972V19.089H70.7502ZM68.6298 18.9564V12.7746H70.6177V18.9564H68.6298Z" fill="#29313C"/>
<path d="M69.5575 13.5205H69.6901V18.4328H69.5575V13.5205Z" fill="#29313C"/>
<path d="M70.2201 13.8539V13.9866H68.8948V13.8539H70.2201Z" fill="#29313C"/>
<path d="M70.2201 14.2986V14.4312H68.8948V14.2986H70.2201Z" fill="#29313C"/>
<path d="M70.2201 14.8544V14.987H68.8948V14.8544H70.2201Z" fill="#29313C"/>
<path d="M70.2201 16.1882V16.3209H68.8948V16.1882H70.2201Z" fill="#29313C"/>
<path d="M70.2201 16.9663V17.099H68.8948V16.9663H70.2201Z" fill="#29313C"/>
<path d="M70.2201 17.4109V17.5436H68.8948V17.4109H70.2201Z" fill="#29313C"/>
<path d="M70.2201 17.9667V18.0994H68.8948V17.9667H70.2201Z" fill="#29313C"/>
<path d="M70.1379 15.4529L70.1666 15.5824L68.8445 15.8761L68.8157 15.7467L70.1379 15.4529Z" fill="#29313C"/>
<path fill-rule="evenodd" clip-rule="evenodd" d="M62.7952 20.2017H59.2169V22.0585H62.7952V20.2017ZM59.3494 21.9259V20.3343H62.6627V21.9259H59.3494Z" fill="#29313C"/>
<path fill-rule="evenodd" clip-rule="evenodd" d="M51.6627 36.9128H41.8555V38.6369H51.6627V36.9128ZM51.5302 38.5043H41.988V37.0454H51.5302V38.5043Z" fill="#29313C"/>
<path fill-rule="evenodd" clip-rule="evenodd" d="M50.735 37.4433H42.6506V38.1064H50.735V37.4433ZM50.6024 37.9738H42.7832V37.5759H50.6024V37.9738Z" fill="#29313C"/>
<path fill-rule="evenodd" clip-rule="evenodd" d="M38.1759 37.4477L34.9065 38.9047L36.1459 41.6909L39.4153 40.234L38.1759 37.4477ZM39.2403 40.1668L36.2131 41.5158L35.0815 38.9719L38.1087 37.6229L39.2403 40.1668Z" fill="#29313C"/>
<path fill-rule="evenodd" clip-rule="evenodd" d="M38.1759 37.4477L34.9065 38.9047L36.1459 41.6909L39.4153 40.234L38.1759 37.4477ZM39.2403 40.1668L36.2131 41.5158L35.0815 38.9719L38.1087 37.6229L39.2403 40.1668Z" fill="#29313C"/>
<path fill-rule="evenodd" clip-rule="evenodd" d="M38.7814 37.178L34.3012 39.1745L35.5406 41.9607L40.0207 39.9642L38.7814 37.178ZM39.8457 39.897L35.6078 41.7856L34.4762 39.2417L38.7142 37.3531L39.8457 39.897Z" fill="#29313C"/>
<path fill-rule="evenodd" clip-rule="evenodd" d="M38.1758 37.4477L34.9066 38.9045L35.3377 39.8735L38.6068 38.4167L38.1758 37.4477ZM38.4318 38.3496L35.4049 39.6984L35.0816 38.9717L38.1085 37.6228L38.4318 38.3496Z" fill="#29313C"/>
<path fill-rule="evenodd" clip-rule="evenodd" d="M42.5181 58.1331H46.0964V55.0827H42.5181V58.1331ZM45.9639 55.2153V58.0005H42.6507V55.2153H45.9639Z" fill="#29313C"/>
<path fill-rule="evenodd" clip-rule="evenodd" d="M42.5181 58.1331H46.0964V55.0827H42.5181V58.1331ZM45.9639 55.2153V58.0005H42.6507V55.2153H45.9639Z" fill="#29313C"/>
<path fill-rule="evenodd" clip-rule="evenodd" d="M41.8554 58.1331H46.759V55.0827H41.8554V58.1331ZM46.6265 55.2153V58.0005H41.988V55.2153H46.6265Z" fill="#29313C"/>
<path fill-rule="evenodd" clip-rule="evenodd" d="M42.5181 58.1331H46.0964V57.0721H42.5181V58.1331ZM45.9639 57.2047V58.0005H42.6507V57.2047H45.9639Z" fill="#29313C"/>
<path fill-rule="evenodd" clip-rule="evenodd" d="M33.241 51.5018V55.0827H36.2892V51.5018H33.241ZM36.1566 54.9501H33.3735V51.6344H36.1566V54.9501Z" fill="#29313C"/>
<path fill-rule="evenodd" clip-rule="evenodd" d="M33.241 48.0535V51.6344H36.2892V48.0535H33.241ZM36.1566 51.5018H33.3735V48.1861H36.1566V51.5018Z" fill="#29313C"/>
<path fill-rule="evenodd" clip-rule="evenodd" d="M33.241 44.6051V48.1861H36.2892V44.6051H33.241ZM36.1566 48.0534H33.3735V44.7378H36.1566V48.0534Z" fill="#29313C"/>
<path fill-rule="evenodd" clip-rule="evenodd" d="M33.241 44.6052V55.0827H36.2892V44.6052H33.241ZM36.1566 54.9501H33.3735V44.7378H36.1566V54.9501Z" fill="#29313C"/>
<path fill-rule="evenodd" clip-rule="evenodd" d="M33.241 43.942V55.7458H36.2892V43.942H33.241ZM36.1566 55.6132H33.3735V44.0746H36.1566V55.6132Z" fill="#29313C"/>
<path fill-rule="evenodd" clip-rule="evenodd" d="M33.241 51.5018V55.0827H34.3012V51.5018H33.241ZM34.1687 54.9501H33.3735V51.6344H34.1687V54.9501Z" fill="#29313C"/>
<path fill-rule="evenodd" clip-rule="evenodd" d="M33.241 48.0535V51.6344H34.3012V48.0535H33.241ZM34.1687 51.5018H33.3735V48.1861H34.1687V51.5018Z" fill="#29313C"/>
<path fill-rule="evenodd" clip-rule="evenodd" d="M33.241 44.6051V48.1861H34.3012V44.6051H33.241ZM34.1687 48.0534H33.3735V44.7378H34.1687V48.0534Z" fill="#29313C"/>
<path fill-rule="evenodd" clip-rule="evenodd" d="M55.7048 52.0986C55.7048 53.7833 57.0696 55.149 58.753 55.149C60.4365 55.149 61.8012 53.7833 61.8012 52.0986C61.8012 50.4139 60.4365 49.0482 58.753 49.0482C57.0696 49.0482 55.7048 50.4139 55.7048 52.0986ZM61.6687 52.0986C61.6687 53.71 60.3633 55.0164 58.753 55.0164C57.1428 55.0164 55.8374 53.71 55.8374 52.0986C55.8374 50.4871 57.1428 49.1808 58.753 49.1808C60.3633 49.1808 61.6687 50.4871 61.6687 52.0986Z" fill="#29313C"/>
<path fill-rule="evenodd" clip-rule="evenodd" d="M63.0914 48.3874L61.566 46.9133L60.2772 48.2489L61.8025 49.723L63.0914 48.3874ZM61.7992 49.5355L60.4646 48.2457L61.5693 47.1008L62.904 48.3907L61.7992 49.5355Z" fill="#29313C"/>
<path fill-rule="evenodd" clip-rule="evenodd" d="M63.2644 55.1293L61.739 56.6034L60.5422 55.3632L61.9722 53.9812L61.9722 53.9812L61.9722 53.9812L62.0676 53.8891L63.2644 55.1293ZM61.9722 53.9812L62.1596 53.9845L62.0643 54.0766L61.9722 53.9812L61.9722 53.9812ZM60.7296 55.3664L62.0643 54.0766L63.077 55.126L61.7423 56.4159L60.7296 55.3664Z" fill="#29313C"/>
<path fill-rule="evenodd" clip-rule="evenodd" d="M63.9879 52.9607V50.8386H62.265V52.9607H63.9879ZM62.3976 50.9713H63.8554V52.828H62.3976V50.9713Z" fill="#29313C"/>
<path fill-rule="evenodd" clip-rule="evenodd" d="M53.1205 53.516L54.0498 55.423L55.7308 54.6024L54.8015 52.6954L53.1205 53.516ZM54.7405 52.8728L55.5536 54.5414L54.1109 55.2457L53.2977 53.5771L54.7405 52.8728Z" fill="#29313C"/>
<path fill-rule="evenodd" clip-rule="evenodd" d="M33.506 15.825V17.9471H35.376V15.825H33.506ZM35.2435 15.9576V17.8144H33.6385V15.9576H35.2435Z" fill="#29313C"/>
<path fill-rule="evenodd" clip-rule="evenodd" d="M33.506 12.1115V14.2335H35.376V12.1115H33.506ZM35.2435 12.2441V14.1009H33.6385V12.2441H35.2435Z" fill="#29313C"/>
<path fill-rule="evenodd" clip-rule="evenodd" d="M56.9961 57.1818L59.0961 57.4773L59.3173 55.9014L57.2173 55.6059L56.9961 57.1818ZM59.1676 56.0143L58.9833 57.3275L57.1458 57.0689L57.3301 55.7557L59.1676 56.0143Z" fill="#29313C"/>
<path fill-rule="evenodd" clip-rule="evenodd" d="M12.6988 57.0721H9.51807V59.3268H12.6988V57.0721ZM9.6506 59.1941V57.2047H12.5663V59.1941H9.6506Z" fill="#29313C"/>
<path fill-rule="evenodd" clip-rule="evenodd" d="M48.4819 15.6924V21.6606H50.7349V15.6924H48.4819ZM50.6024 21.528H48.6145V15.825H50.6024V21.528Z" fill="#29313C"/>
<path fill-rule="evenodd" clip-rule="evenodd" d="M12.6988 10.5199H9.51807V12.7746H12.6988V10.5199ZM9.6506 12.642V10.6526H12.5663V12.642H9.6506Z" fill="#29313C"/>
<path fill-rule="evenodd" clip-rule="evenodd" d="M30.5904 57.0721H23.6989V59.3268H30.5904V57.0721ZM23.8314 59.1941V57.2047H30.4579V59.1941H23.8314Z" fill="#29313C"/>
<path fill-rule="evenodd" clip-rule="evenodd" d="M29.6627 10.5199H23.6989V12.7746H29.6627V10.5199ZM23.8314 12.642V10.6526H29.5302V12.642H23.8314Z" fill="#29313C"/>
<path fill-rule="evenodd" clip-rule="evenodd" d="M22.241 48.9818H14.2892V59.3268H22.241V48.9818ZM14.4217 59.1941V49.1145H22.1085V59.1941H14.4217Z" fill="#29313C"/>
<path fill-rule="evenodd" clip-rule="evenodd" d="M17.8675 56.9395H14.8193V58.9289H17.8675V56.9395ZM17.735 58.7963H14.9519V57.0721H17.735V58.7963Z" fill="#29313C"/>
<path fill-rule="evenodd" clip-rule="evenodd" d="M21.5783 56.9395H18.5302V58.9289H21.5783V56.9395ZM18.6627 58.7963V57.0721H21.4458V58.7963H18.6627Z" fill="#29313C"/>
<path fill-rule="evenodd" clip-rule="evenodd" d="M22.241 48.9818H14.2892V56.2763H22.241V48.9818ZM14.4217 56.1437V49.1145H22.1085V56.1437H14.4217Z" fill="#29313C"/>
<path fill-rule="evenodd" clip-rule="evenodd" d="M22.241 48.9818H14.2892V54.9501H22.241V48.9818ZM14.4217 54.8174V49.1145H22.1085V54.8174H14.4217Z" fill="#29313C"/>
<path fill-rule="evenodd" clip-rule="evenodd" d="M22.241 20.8649H14.2892V10.5199H22.241V20.8649ZM14.4217 10.6526V20.7322H22.1085V10.6526H14.4217Z" fill="#29313C"/>
<path fill-rule="evenodd" clip-rule="evenodd" d="M17.8675 12.9072H14.8193V10.9178H17.8675V12.9072ZM14.9519 11.0504V12.7746H17.735V11.0504H14.9519Z" fill="#29313C"/>
<path fill-rule="evenodd" clip-rule="evenodd" d="M21.5783 12.9072H18.5302V10.9178H21.5783V12.9072ZM18.6627 11.0504V12.7746H21.4458V11.0504H18.6627Z" fill="#29313C"/>
<path fill-rule="evenodd" clip-rule="evenodd" d="M22.241 20.8649H14.2892V13.5704H22.241V20.8649ZM14.4217 13.703V20.7322H22.1085V13.703H14.4217Z" fill="#29313C"/>
<path fill-rule="evenodd" clip-rule="evenodd" d="M22.241 20.8649H14.2892V14.8966H22.241V20.8649ZM14.4217 15.0293V20.7322H22.1085V15.0293H14.4217Z" fill="#29313C"/>
<path fill-rule="evenodd" clip-rule="evenodd" d="M40.3976 26.8331V22.589H50.7349V26.8331H40.3976ZM50.6024 22.7216H40.5301V26.7005H50.6024V22.7216Z" fill="#29313C"/>
<path fill-rule="evenodd" clip-rule="evenodd" d="M48.3494 26.1699V23.1195H50.3373V26.1699H48.3494ZM50.2048 23.2521H48.4819V26.0373H50.2048V23.2521Z" fill="#29313C"/>
<path fill-rule="evenodd" clip-rule="evenodd" d="M40.3976 26.8331V22.589H47.6867V26.8331H40.3976ZM47.5542 22.7216H40.5301V26.7005H47.5542V22.7216Z" fill="#29313C"/>
<path fill-rule="evenodd" clip-rule="evenodd" d="M40.3976 26.8331V22.589H46.3614V26.8331H40.3976ZM46.2289 22.7216H40.5301V26.7005H46.2289V22.7216Z" fill="#29313C"/>
<path fill-rule="evenodd" clip-rule="evenodd" d="M40.3976 14.764V10.5199H50.7349V14.764H40.3976ZM50.6024 10.6526H40.5301V14.6314H50.6024V10.6526Z" fill="#29313C"/>
<path fill-rule="evenodd" clip-rule="evenodd" d="M48.3494 14.1009V11.0504H50.3373V14.1009H48.3494ZM50.2048 11.1831H48.4819V13.9682H50.2048V11.1831Z" fill="#29313C"/>
<path fill-rule="evenodd" clip-rule="evenodd" d="M40.3976 14.764V10.5199H47.6867V14.764H40.3976ZM47.5542 10.6526H40.5301V14.6314H47.5542V10.6526Z" fill="#29313C"/>
<path fill-rule="evenodd" clip-rule="evenodd" d="M40.3976 14.764V10.5199H46.3614V14.764H40.3976ZM46.2289 10.6526H40.5301V14.6314H46.2289V10.6526Z" fill="#29313C"/>
<path fill-rule="evenodd" clip-rule="evenodd" d="M33.6386 10.5199H30.3253V19.1407H33.6386V10.5199ZM30.4578 19.0081V10.6526H33.506V19.0081H30.4578Z" fill="#29313C"/>
<path fill-rule="evenodd" clip-rule="evenodd" d="M14.8835 42.475H12.7631V44.3463H14.8835V42.475ZM14.751 44.2137H12.8956V42.6076H14.751V44.2137Z" fill="#29313C"/>
<path fill-rule="evenodd" clip-rule="evenodd" d="M18.0717 42.6149V39.2992H9.4572V42.6149H18.0717ZM9.58973 42.4823V39.4319H17.9391V42.4823H9.58973Z" fill="#29313C"/>
<path fill-rule="evenodd" clip-rule="evenodd" d="M71.0121 36.3823H58.6868V39.5653H71.0121V36.3823ZM58.8193 39.4327V36.5149H70.8795V39.4327H58.8193Z" fill="#29313C"/>
</svg>
